<?xml version="1.0" encoding="UTF-8"?>
<svg id="Layer_2" data-name="Layer 2" xmlns="http://www.w3.org/2000/svg" viewBox="0 0 92.72 602.75">
  <defs>
    <style>
      .cls-1 {
        fill: none;
        stroke: #231f20;
        stroke-miterlimit: 10;
      }
    </style>
  </defs>
  <g id="Layer_2-2" data-name="Layer 2">
    <path class="cls-1" d="m9.53.16S-1.31,31.4,4.32,63.06s11.71,55.09,12.58,76.35.43,59.43-4.77,89.36,6.51,76.35,9.98,103.24,6.62,78.95-9.71,107.58-14.15,68.54-3.74,96.3-3.47,66.37-3.47,66.37h65.5s9.54-31.67,8.24-55.09-16.05-71.14-16.05-93.26,5.64-65.93,22.56-102.37c16.92-36.44-2.6-77.65-7.37-90.66s-12.58-71.14-10.41-89.79,11.71-36,12.15-63.77-7.81-50.32-9.54-58.13S63.75,2.77,63.75,2.77"/>
  </g>
</svg>