<?xml version="1.0" encoding="UTF-8"?>
<svg id="Layer_2" data-name="Layer 2" xmlns="http://www.w3.org/2000/svg" viewBox="0 0 92.72 603.13">
  <defs>
    <style>
      .cls-1 {
        fill: none;
        stroke: #231f20;
        stroke-miterlimit: 10;
      }
    </style>
  </defs>
  <g id="Layer_2-2" data-name="Layer 2">
    <path class="cls-1" d="m9.53.54S-1.31,31.78,4.32,63.44c5.64,31.67,11.71,55.09,12.58,76.35s.43,59.43-4.77,89.36,6.51,76.35,9.98,103.24,6.62,78.95-9.71,107.58c-16.32,28.63-14.15,68.54-3.74,96.3,10.41,27.76-3.47,66.37-3.47,66.37h65.5s9.54-31.67,8.24-55.09-16.05-71.14-16.05-93.26,5.64-65.93,22.56-102.37c16.92-36.44-2.6-77.65-7.37-90.66s-12.58-71.14-10.41-89.79,11.71-36,12.15-63.77-7.81-50.32-9.54-58.13S63.75,3.15,63.75,3.15l-13.88.1s11.79,59.5,15.54,93.27-17.74,62.18-19.06,95.41,18.52,78.79,20.66,112.56-13.4,87.37-16.08,115.24,1.07,72.36,9.11,106.67-4.29,76.24-4.29,76.24h-30.02s13.26-33.89,3.42-75.7-3.22-63.79,3.02-90.59,9.65-69.68,11.26-101.84-14.07-58.43-14.27-107.2,14.59-78.79,12.02-107.2-19.72-54.67-17.58-83.08S29.17.54,29.17.54l20.7,2.7L29.17.54H9.53Z"/>
  </g>
</svg>