<?xml version="1.0" encoding="UTF-8"?>
<svg id="Layer_2" data-name="Layer 2" xmlns="http://www.w3.org/2000/svg" viewBox="0 0 6.45 36.42">
  <defs>
    <style>
      .cls-1 {
        fill: none;
        stroke: #231f20;
        stroke-miterlimit: 10;
      }
    </style>
  </defs>
  <g id="Layer_2-2" data-name="Layer 2">
    <path class="cls-1" d="m1.04.16s-.64,1.85-.31,3.73.7,3.27.75,4.53.03,3.53-.28,5.31.39,4.53.59,6.13.39,4.69-.58,6.39-.84,4.07-.22,5.72-.21,3.94-.21,3.94h3.89s.57-1.88.49-3.27-.95-4.22-.95-5.54.33-3.92,1.34-6.08-.15-4.61-.44-5.38-.75-4.22-.62-5.33.7-2.14.72-3.79-.46-2.99-.57-3.45-.39-2.76-.39-2.76"/>
  </g>
</svg>